<?xml version="1.0" standalone="no"?>
<!DOCTYPE svg PUBLIC "-//W3C//DTD SVG 20010904//EN"
 "http://www.w3.org/TR/2001/REC-SVG-20010904/DTD/svg10.dtd">
<svg version="1.0" xmlns="http://www.w3.org/2000/svg"
 width="417.000000pt" height="417.000000pt" viewBox="0 0 417.000000 417.000000"
 preserveAspectRatio="xMidYMid meet">
<metadata>
Created by potrace 1.11, written by Peter Selinger 2001-2013
</metadata>
<g transform="translate(0.000000,417.000000) scale(0.100000,-0.100000)"
fill="#000000" stroke="none">
<path d="M0 3510 l0 -180 570 0 570 0 0 180 0 180 -570 0 -570 0 0 -180z"/>
<path d="M1520 3510 l0 -180 565 0 565 0 0 180 0 180 -565 0 -565 0 0 -180z"/>
<path d="M3030 3510 l0 -180 570 0 570 0 0 180 0 180 -570 0 -570 0 0 -180z"/>
<path d="M0 2800 l0 -180 570 0 570 0 0 180 0 180 -570 0 -570 0 0 -180z"/>
<path d="M1520 2800 l0 -180 565 0 565 0 0 180 0 180 -565 0 -565 0 0 -180z"/>
<path d="M3030 2800 l0 -180 570 0 570 0 0 180 0 180 -570 0 -570 0 0 -180z"/>
<path d="M0 2085 l0 -175 570 0 570 0 0 175 0 175 -570 0 -570 0 0 -175z"/>
<path d="M1520 2085 l0 -175 565 0 565 0 0 175 0 175 -565 0 -565 0 0 -175z"/>
<path d="M0 1370 l0 -180 570 0 570 0 0 180 0 180 -570 0 -570 0 0 -180z"/>
<path d="M1520 1370 l0 -180 565 0 565 0 0 180 0 180 -565 0 -565 0 0 -180z"/>
<path d="M0 660 l0 -180 570 0 570 0 0 180 0 180 -570 0 -570 0 0 -180z"/>
<path d="M1520 660 l0 -180 565 0 565 0 0 180 0 180 -565 0 -565 0 0 -180z"/>
</g>
</svg>
